<?xml version="1.0" encoding="UTF-8"?>
<svg xmlns="http://www.w3.org/2000/svg" xmlns:xlink="http://www.w3.org/1999/xlink" width="48pt" height="48pt" viewBox="0 0 48 48" version="1.1">
<g id="surface1">
<path style=" stroke:none;fill-rule:evenodd;fill:rgb(34.509804%,51.372549%,71.764706%);fill-opacity:1;" d="M 39.929688 44.066406 L 44.132812 39.863281 L 45.394531 45.328125 Z M 25.625 30.332031 L 24.035156 28.742188 L 19.257812 23.96875 L 17.667969 22.378906 L 7.820312 12.527344 L 12.59375 7.753906 L 42.828125 37.988281 L 38.054688 42.761719 Z M 9.851562 42.921875 L 6.082031 44.539062 L 3.464844 41.917969 L 5.082031 38.144531 L 17.667969 25.558594 L 22.441406 30.332031 Z M 3.039062 7.746094 C 2.605469 7.3125 2.609375 6.601562 3.046875 6.164062 L 6.226562 2.980469 C 6.671875 2.539062 7.375 2.539062 7.8125 2.972656 L 11.003906 6.164062 L 6.226562 10.9375 Z M 37.394531 5.832031 L 42.167969 10.605469 L 30.398438 22.378906 L 25.625 17.601562 Z M 43.363281 2.25 C 43.367188 2.25 43.359375 2.25 43.367188 2.257812 L 45.742188 4.636719 C 45.75 4.640625 45.75 4.636719 45.75 4.640625 L 42.566406 7.820312 L 40.179688 5.433594 Z M 46.007812 37.988281 L 31.988281 23.96875 L 41.34375 14.617188 L 42.21875 15.492188 C 42.660156 15.933594 42.660156 16.644531 42.214844 17.085938 L 37.800781 21.5 C 37.363281 21.941406 37.363281 22.652344 37.800781 23.09375 C 38.242188 23.53125 38.953125 23.53125 39.390625 23.09375 L 43.808594 18.679688 C 45.128906 17.359375 45.128906 15.222656 43.8125 13.902344 L 42.933594 13.023438 L 45.351562 10.605469 L 44.15625 9.414062 L 47.339844 6.230469 C 48.226562 5.34375 48.214844 3.925781 47.335938 3.042969 L 44.957031 0.664062 C 44.066406 -0.222656 42.648438 -0.21875 41.773438 0.660156 L 38.589844 3.84375 L 37.394531 2.652344 L 35.804688 4.242188 L 35.800781 4.242188 L 24.035156 16.011719 L 9.402344 1.382812 C 8.085938 0.0664062 5.957031 0.0703125 4.636719 1.390625 L 1.453125 4.570312 C 0.140625 5.886719 0.132812 8.023438 1.449219 9.339844 L 4.941406 12.832031 L 6.226562 14.121094 L 16.078125 23.96875 L 3.183594 36.863281 L 0.796875 42.433594 L 2.386719 44.023438 L 0 46.410156 L 1.589844 48 L 3.976562 45.613281 L 5.570312 47.207031 L 11.140625 44.820312 L 24.035156 31.925781 L 36.460938 44.351562 L 38.050781 45.945312 L 46.203125 47.824219 C 47.40625 48.101562 48.167969 47.347656 47.890625 46.136719 Z M 46.007812 37.988281 "/>
</g>
</svg>
