<?xml version="1.0" encoding="UTF-8"?>
<svg xmlns="http://www.w3.org/2000/svg" xmlns:xlink="http://www.w3.org/1999/xlink" width="48pt" height="48pt" viewBox="0 0 48 48" version="1.1">
<g id="surface1">
<path style=" stroke:none;fill-rule:evenodd;fill:rgb(96.862745%,14.117647%,6.27451%);fill-opacity:1;" d="M 43.90625 41.945312 C 43.90625 42.53125 43.429688 43.007812 42.855469 43.007812 L 5.144531 43.007812 C 4.5625 43.007812 4.09375 42.535156 4.09375 41.945312 L 4.09375 13.441406 L 43.90625 13.441406 Z M 5.144531 4.992188 L 42.855469 4.992188 C 43.433594 4.992188 43.898438 5.460938 43.90625 6.046875 C 43.90625 6.050781 43.90625 6.050781 43.90625 6.054688 L 43.90625 11.328125 L 4.09375 11.328125 L 4.09375 6.054688 C 4.09375 6.050781 4.09375 6.050781 4.09375 6.046875 C 4.101562 5.464844 4.570312 4.992188 5.144531 4.992188 Z M 42.855469 2.878906 C 44.589844 2.878906 45.996094 4.292969 46 6.046875 C 46 6.050781 46 6.050781 46 6.054688 L 46 41.945312 C 46 43.699219 44.585938 45.121094 42.855469 45.121094 L 5.144531 45.121094 C 3.410156 45.121094 2 43.703125 2 41.945312 L 2 6.050781 C 2.003906 4.671875 2.882812 3.511719 4.09375 3.074219 C 4.425781 2.957031 4.777344 2.878906 5.144531 2.878906 Z M 26.09375 17.867188 C 25.929688 17.984375 25.785156 18.132812 25.707031 18.335938 L 25.554688 18.71875 L 22.019531 27.824219 L 18.832031 36.035156 C 18.621094 36.578125 18.886719 37.191406 19.429688 37.40625 C 19.96875 37.617188 20.574219 37.347656 20.785156 36.808594 L 22.019531 33.621094 L 26.09375 23.125 L 27.65625 19.105469 C 27.707031 18.976562 27.722656 18.847656 27.722656 18.71875 C 27.722656 18.296875 27.476562 17.898438 27.0625 17.734375 C 26.726562 17.601562 26.371094 17.675781 26.09375 17.867188 Z M 14.996094 21.140625 L 13.523438 22.625 L 9.8125 26.363281 C 9.40625 26.773438 9.40625 27.445312 9.8125 27.855469 L 13.523438 31.59375 L 14.996094 33.078125 C 15.40625 33.492188 16.066406 33.492188 16.476562 33.078125 C 16.886719 32.664062 16.886719 31.996094 16.476562 31.585938 L 13.523438 28.609375 L 12.035156 27.109375 L 13.523438 25.609375 L 16.476562 22.632812 C 16.886719 22.222656 16.886719 21.554688 16.476562 21.140625 C 16.066406 20.726562 15.40625 20.726562 14.996094 21.140625 Z M 31.640625 21.140625 C 31.230469 21.554688 31.230469 22.222656 31.640625 22.632812 L 32.96875 23.972656 L 36.078125 27.109375 L 32.96875 30.246094 L 31.640625 31.585938 C 31.230469 31.996094 31.230469 32.664062 31.640625 33.078125 C 32.003906 33.445312 32.558594 33.46875 32.96875 33.179688 C 33.019531 33.144531 33.074219 33.125 33.121094 33.078125 L 38.300781 27.855469 C 38.710938 27.445312 38.710938 26.773438 38.300781 26.363281 L 33.121094 21.140625 C 33.074219 21.09375 33.019531 21.074219 32.96875 21.039062 C 32.558594 20.753906 32.003906 20.773438 31.640625 21.140625 Z M 7.238281 7.101562 C 6.65625 7.101562 6.191406 7.574219 6.191406 8.160156 C 6.191406 8.742188 6.65625 9.214844 7.238281 9.214844 C 7.816406 9.214844 8.285156 8.742188 8.285156 8.160156 C 8.285156 7.574219 7.816406 7.101562 7.238281 7.101562 Z M 10.378906 7.101562 C 9.800781 7.101562 9.332031 7.574219 9.332031 8.160156 C 9.332031 8.742188 9.800781 9.214844 10.378906 9.214844 C 10.960938 9.214844 11.429688 8.742188 11.429688 8.160156 C 11.429688 7.574219 10.960938 7.101562 10.378906 7.101562 Z M 13.523438 7.101562 C 12.945312 7.101562 12.476562 7.574219 12.476562 8.160156 C 12.476562 8.742188 12.945312 9.214844 13.523438 9.214844 C 14.101562 9.214844 14.570312 8.742188 14.570312 8.160156 C 14.570312 7.574219 14.101562 7.101562 13.523438 7.101562 Z M 13.523438 7.101562 "/>
</g>
</svg>
