<?xml version="1.0" encoding="UTF-8"?>
<svg xmlns="http://www.w3.org/2000/svg" xmlns:xlink="http://www.w3.org/1999/xlink" width="48pt" height="48pt" viewBox="0 0 48 48" version="1.1">
<g id="surface1">
<path style=" stroke:none;fill-rule:evenodd;fill:rgb(34.509804%,51.372549%,71.764706%);fill-opacity:1;" d="M 42.25 40.449219 C 42.25 40.988281 41.8125 41.425781 41.285156 41.425781 L 6.714844 41.425781 C 6.183594 41.425781 5.75 40.992188 5.75 40.449219 L 5.75 14.320312 L 42.25 14.320312 Z M 6.714844 6.574219 L 41.285156 6.574219 C 41.816406 6.574219 42.242188 7.003906 42.25 7.542969 C 42.25 7.546875 42.25 7.546875 42.25 7.550781 L 42.25 12.382812 L 5.75 12.382812 L 5.75 7.550781 C 5.75 7.546875 5.75 7.546875 5.75 7.542969 C 5.757812 7.007812 6.1875 6.574219 6.714844 6.574219 Z M 41.285156 4.636719 C 42.875 4.636719 44.164062 5.933594 44.167969 7.542969 C 44.167969 7.546875 44.167969 7.546875 44.167969 7.550781 L 44.167969 40.449219 C 44.167969 42.058594 42.871094 43.363281 41.285156 43.363281 L 6.714844 43.363281 C 5.125 43.363281 3.832031 42.0625 3.832031 40.449219 L 3.832031 7.546875 C 3.835938 6.28125 4.640625 5.21875 5.75 4.816406 C 6.054688 4.710938 6.378906 4.636719 6.714844 4.636719 Z M 25.917969 18.378906 C 25.769531 18.484375 25.636719 18.621094 25.566406 18.808594 L 25.425781 19.160156 L 22.183594 27.503906 L 19.261719 35.03125 C 19.070312 35.53125 19.3125 36.09375 19.808594 36.289062 C 20.304688 36.484375 20.859375 36.234375 21.054688 35.742188 L 22.183594 32.820312 L 25.917969 23.199219 L 27.351562 19.511719 C 27.398438 19.394531 27.414062 19.277344 27.414062 19.160156 C 27.414062 18.773438 27.1875 18.40625 26.808594 18.257812 C 26.5 18.132812 26.171875 18.203125 25.917969 18.378906 Z M 15.746094 21.378906 L 14.394531 22.738281 L 10.996094 26.167969 C 10.621094 26.542969 10.621094 27.160156 10.996094 27.535156 L 14.394531 30.960938 L 15.746094 32.320312 C 16.121094 32.703125 16.726562 32.703125 17.101562 32.320312 C 17.480469 31.941406 17.480469 31.328125 17.101562 30.953125 L 14.394531 28.226562 L 13.03125 26.851562 L 14.394531 25.476562 L 17.101562 22.746094 C 17.480469 22.371094 17.480469 21.757812 17.101562 21.378906 C 16.726562 21 16.121094 21 15.746094 21.378906 Z M 31.003906 21.378906 C 30.628906 21.757812 30.628906 22.371094 31.003906 22.746094 L 32.222656 23.976562 L 35.070312 26.851562 L 32.222656 29.726562 L 31.003906 30.953125 C 30.628906 31.328125 30.628906 31.941406 31.003906 32.320312 C 31.335938 32.660156 31.84375 32.679688 32.222656 32.414062 C 32.269531 32.382812 32.316406 32.363281 32.359375 32.320312 L 37.109375 27.535156 C 37.484375 27.160156 37.484375 26.542969 37.109375 26.167969 L 32.359375 21.378906 C 32.316406 21.335938 32.269531 21.316406 32.222656 21.285156 C 31.84375 21.023438 31.335938 21.042969 31.003906 21.378906 Z M 8.632812 8.507812 C 8.101562 8.507812 7.675781 8.941406 7.675781 9.480469 C 7.675781 10.011719 8.101562 10.445312 8.632812 10.445312 C 9.164062 10.445312 9.59375 10.011719 9.59375 9.480469 C 9.59375 8.941406 9.164062 8.507812 8.632812 8.507812 Z M 11.511719 8.507812 C 10.984375 8.507812 10.554688 8.941406 10.554688 9.480469 C 10.554688 10.011719 10.984375 10.445312 11.511719 10.445312 C 12.046875 10.445312 12.476562 10.011719 12.476562 9.480469 C 12.476562 8.941406 12.046875 8.507812 11.511719 8.507812 Z M 14.394531 8.507812 C 13.867188 8.507812 13.4375 8.941406 13.4375 9.480469 C 13.4375 10.011719 13.867188 10.445312 14.394531 10.445312 C 14.925781 10.445312 15.355469 10.011719 15.355469 9.480469 C 15.355469 8.941406 14.925781 8.507812 14.394531 8.507812 Z M 14.394531 8.507812 "/>
</g>
</svg>
