<?xml version="1.0" encoding="UTF-8"?>
<svg xmlns="http://www.w3.org/2000/svg" xmlns:xlink="http://www.w3.org/1999/xlink" width="48pt" height="48pt" viewBox="0 0 48 48" version="1.1">
<g id="surface1">
<path style=" stroke:none;fill-rule:evenodd;fill:rgb(91.372549%,29.411765%,23.529412%);fill-opacity:1;" d="M 41.199219 36 L 8.796875 36 C 7.921875 36 7.109375 36.253906 6.398438 36.667969 L 6.398438 4.800781 C 6.398438 3.476562 7.476562 2.398438 8.796875 2.398438 L 41.199219 2.398438 Z M 41.199219 40.800781 L 12.398438 40.800781 L 12.398438 43.199219 L 41.199219 43.199219 L 41.199219 45.601562 L 8.796875 45.601562 C 7.894531 45.601562 7.117188 45.089844 6.707031 44.351562 C 6.519531 44.007812 6.398438 43.613281 6.398438 43.1875 L 6.398438 40.8125 C 6.398438 39.480469 7.480469 38.398438 8.796875 38.398438 L 41.199219 38.398438 Z M 43.601562 0 L 43.601562 48 L 8.796875 48 C 6.882812 48 5.242188 46.871094 4.472656 45.242188 C 4.175781 44.621094 4 43.933594 4 43.199219 L 4 4.800781 C 4 2.148438 6.15625 0 8.796875 0 Z M 23.164062 9.941406 L 17.164062 13.542969 C 16.441406 13.976562 16 14.757812 16 15.601562 L 16 22.800781 C 16 23.640625 16.441406 24.425781 17.164062 24.859375 L 23.164062 28.457031 C 23.925781 28.914062 24.875 28.914062 25.636719 28.457031 L 31.636719 24.859375 C 32.355469 24.425781 32.800781 23.640625 32.800781 22.800781 L 32.800781 15.601562 C 32.800781 14.757812 32.355469 13.976562 31.636719 13.542969 L 25.636719 9.941406 C 24.875 9.484375 23.925781 9.484375 23.164062 9.941406 Z M 24.398438 12 L 30.398438 15.601562 L 30.398438 22.800781 L 24.398438 26.398438 L 18.398438 22.800781 L 18.398438 15.601562 Z M 24.398438 12 "/>
</g>
</svg>
